<svg width="211" height="210" viewBox="0 0 211 210" fill="none" xmlns="http://www.w3.org/2000/svg">
<path d="M193.294 164.068C196.58 159.694 198.77 154.773 200.96 149.852C206.984 135.635 210.817 120.324 210.817 105.014C210.817 77.6735 200.413 53.0674 183.438 34.4761C174.129 22.9932 162.082 14.2444 147.845 8.77632C134.704 3.30828 120.467 0.0274629 105.682 0.0274629C82.1364 -0.519341 60.7809 7.13591 43.8061 19.7124C16.4273 39.9441 0 70.5651 0 105.014C0 162.975 47.0915 210 105.135 210C139.632 210 174.129 192.502 193.294 164.068Z" fill="url(#paint0_linear_106_4444)"/>
<defs>
<linearGradient id="paint0_linear_106_4444" x1="152.257" y1="188.611" x2="60.1154" y2="-0.282515" gradientUnits="userSpaceOnUse">
<stop stop-color="white" stop-opacity="0.95"/>
<stop offset="1" stop-color="white" stop-opacity="0.7"/>
</linearGradient>
</defs>
</svg>
