<?xml version="1.0" encoding="utf-8"?>
<!-- Generator: Adobe Illustrator 25.0.0, SVG Export Plug-In . SVG Version: 6.00 Build 0)  -->
<svg fill="#939393" version="1.1" id="图层_1" xmlns="http://www.w3.org/2000/svg" xmlns:xlink="http://www.w3.org/1999/xlink" x="0px" y="0px"
	 viewBox="0 0 238.9 200" style="enable-background:new 0 0 238.9 200;" xml:space="preserve">
<path d="M111.2,135.1V67.2c0,0,40.8-16.8,51.9,28c0,0,8.5,55.1-56.7,46.2c0,0-54.1-11.3-42.3-77.2c1.4-7.5,5.7-15.3,10-21.4
	c8.3-11.9,22.8-21.9,37.6-23.5c15.7-1.7,31.9,1.3,46.3,7.7c11.1,5,21.3,12.2,29.6,21.1c8.2,8.8,13.9,22.3,16.7,33.9
	c10.5,44.3-22.9,91.2-66.7,99.5c-32.8,6.2-62.4-9-84.6-32.2c0,0-30-28.9-13.4-89.4c0,0-2.3-5.9-5-5.9c0,0-30.6,56.7,11,109.8
	c36.4,46.5,116.1,49.3,154.8,3.3c21.1-25,28.9-57.9,20.2-89.5c-9.9-36.1-36-65.1-72.7-74.3C123.3-3.1,97.6,0.2,77,15.5
	c-6.6,4.9-12.5,10.8-17.7,17.2c0,0-49.3,80.5,32.6,123.9c10.4,5.5,26.6,5.7,37.8,4.7c23.9-2.1,43-16.5,52.4-38.6
	c8.1-19,6.8-38.6-4.2-56c-9.5-15-25.3-27.4-43.4-29.4c-11.7-1.3-24.1,1.6-35,5.6c-1.7,0.6-14.4,4.9-14.4,6.5c0,0,0,73.3,0,73.3
	L111.2,135.1z"/>
</svg>
