<svg width="31" height="30" viewBox="0 0 31 30" fill="none" xmlns="http://www.w3.org/2000/svg">
<path d="M15.5 0C6.93625 0 2.2623e-06 6.88245 2.2623e-06 15.3798C-0.00175578 18.6085 1.02116 21.7556 2.92364 24.375C4.82611 26.9941 7.51153 28.9526 10.5989 29.9721C11.3739 30.1059 11.6637 29.6445 11.6637 29.24C11.6637 28.8755 11.6436 27.6652 11.6436 26.3763C7.75 27.0884 6.7425 25.4351 6.4325 24.5692C6.25735 24.1263 5.5025 22.7621 4.84375 22.396C4.30125 22.1084 3.52625 21.3964 4.8236 21.3779C6.045 21.3579 6.9161 22.4929 7.2075 22.9543C8.6025 25.2797 10.8314 24.6261 11.7211 24.2232C11.8575 23.2235 12.2636 22.5514 12.71 22.1669C9.26125 21.7824 5.6575 20.4551 5.6575 14.5723C5.6575 12.899 6.25735 11.5164 7.24625 10.4383C7.09125 10.0538 6.54875 8.47734 7.40125 6.36262C7.40125 6.36262 8.6986 5.95967 11.6637 7.94058C12.9255 7.59309 14.2293 7.41819 15.5387 7.42074C16.8562 7.42074 18.1737 7.593 19.4137 7.93904C22.3773 5.93967 23.6762 6.36415 23.6762 6.36415C24.5287 8.47887 23.9862 10.0553 23.8312 10.4398C24.8186 11.5164 25.42 12.8806 25.42 14.5723C25.42 20.4751 21.7976 21.7824 18.3489 22.1669C18.91 22.6467 19.3951 23.5695 19.3951 25.0121C19.3951 27.0684 19.375 28.7217 19.375 29.2416C19.375 29.6445 19.6664 30.1244 20.4414 29.9706C23.5181 28.9398 26.1917 26.9777 28.0858 24.3603C29.9799 21.7429 30.9991 18.602 31 15.3798C31 6.88245 24.0637 0 15.5 0Z" fill="#939393"/>
</svg>
