<svg id="图层_1" data-name="图层 1" xmlns="http://www.w3.org/2000/svg" xmlns:xlink="http://www.w3.org/1999/xlink" viewBox="0 0 756 218.04"><defs><style>.cls-1{fill:#fff;}.cls-2{fill:url(#未命名的渐变_35);}</style><linearGradient id="未命名的渐变_35" x1="40.41" y1="134.73" x2="205.79" y2="134.73" gradientUnits="userSpaceOnUse"><stop offset="0" stop-color="#28bf5b"/><stop offset="1" stop-color="#29a45c"/></linearGradient></defs><title>logo</title><path class="cls-1" d="M501.81,153c-5-.08-8.62-1.88-10.85-5.35-2.11-3.29-2.27-8.07-2.17-14.17V104.7l23.82,0V87.8H488.89V64.48l-20.7,7.78V87.8H452.41v16.93H467.5v37.61l.1,0c.49,9.6,2.84,16.54,7.39,20.6,5.42,4.84,12.75,7.37,21.8,7.53,9.34.16,16.83-1.77,22.29-5.72l-6.69-14.55A20.66,20.66,0,0,1,501.81,153Z"/><rect class="cls-1" x="619.66" y="64.77" width="20.58" height="108.62"/><path class="cls-1" d="M712.67,135.56c-3.49-3.74-9.59-7.14-18.12-10.11-.65-.23-1.59-.54-2.86-.95-11.33-3.89-16.8-8.08-16.72-12.8a7.82,7.82,0,0,1,3.94-6.69,16.29,16.29,0,0,1,9.21-2.22,16.47,16.47,0,0,1,9.38,2.74,13.38,13.38,0,0,1,4.75,6.16l14.68-7A24.9,24.9,0,0,0,706.74,94a37.29,37.29,0,0,0-18.06-4.49c-9.78-.16-17.78,2.07-23.78,6.63a21.74,21.74,0,0,0-9.07,17.93,16.65,16.65,0,0,0,4.85,12.51c3.43,3.52,9.84,7.15,19.05,10.79,1.38.56,3.29,1.28,5.67,2.13,8.45,3,12.52,6.72,12.45,11.32a7.89,7.89,0,0,1-4.05,6.91c-2.44,1.5-5.75,2.22-9.84,2.15a18.31,18.31,0,0,1-10.53-3.14,12.6,12.6,0,0,1-4.86-6.6l-15.48,7.66c1.9,4.52,5.43,8.22,10.51,11,5.62,3.07,12.56,4.7,20.63,4.83,10.17.17,18.37-2,24.37-6.39s8.92-10.22,9-17.84A19.15,19.15,0,0,0,712.67,135.56Z"/><path class="cls-1" d="M423.06,93.92l-1.49-1.12a40,40,0,1,0-1.17,70.32l2.66-1.09v7.37h20.73V87.13H423.06Zm-21.51,54.66A20.94,20.94,0,1,1,422.84,128,21,21,0,0,1,401.55,148.58Z"/><path class="cls-1" d="M330.92,121.34a26.87,26.87,0,0,0,17.86-9.11A29.24,29.24,0,0,0,356,92.84c.17-10.47-3.05-18.44-9.59-23.71s-17-8.49-30.66-8.72H280.79v107.1h22.29V116.15l32.15,51.36h24.4l-31-45.92Zm-27.84-17.86V78l21.51.34a12.77,12.77,0,1,1-.43,25.53Z"/><path class="cls-1" d="M565.63,87.78c-12-.2-22,3.62-29.85,11.35S523.91,117,523.7,129.22c-.21,12.73,3.33,23,10.53,30.64s17.23,11.56,29.84,11.77c8.34.14,15.64-1.41,21.71-4.61a36.93,36.93,0,0,0,5.85-3.86l.29-.23a41.69,41.69,0,0,0,4.29-4c4.72-4.91,6.69-8.82,7.46-11.56L582.59,147a20.74,20.74,0,0,1-6,4.62A24.78,24.78,0,0,1,564.86,154c-6-.1-10.77-1.75-14.25-4.9s-5.69-7.85-6.56-14l-.23-1.11h61c.11-1,.2-1.32.24-1.93.07-.81.1-1.57.12-2.25.21-12.78-3.25-23.05-10.29-30.52S578,88,565.63,87.78ZM545.08,120.3c1-5.28,3.29-9.34,6.69-12.05s8-4.1,13.59-4,10.06,1.6,13.3,4.47c3.06,2.71,5,6.61,5.68,11.59Z"/><path class="cls-1" d="M230.42,113.05a106.52,106.52,0,0,1-24.63,68.29c-21.9,18.91-50.43,33.61-81.64,33.61l-.76,0-.76,0c-31.15,0-60.21-15.51-82.1-34.38a.45.45,0,0,1-.11-.14,113,113,0,0,1-24.07-69.5C16.35,51.82,64.27,6,123.38,6A107.05,107.05,0,0,1,230.42,113.05Z"/><path class="cls-2" d="M202.35,164.4l-7.46-38.47s-.5-2.81-1.27-7c2.21-5.81,3.91-12.68,2-17.2a11.08,11.08,0,0,0-6.42-6.35c-.24-1.23-.46-2.42-.68-3.57,0,0-2.58-9.32-11.59-19.37-.38-.43-.77-.88-1.19-1.3h-.12c-.47-.52-1-1-1.48-1.47-.26-.24-.49-.47-.71-.69-6.58-6.62-16.89-11-30.63-13.11a132.13,132.13,0,0,0-19.19-1.31h-.53a132.13,132.13,0,0,0-19.19,1.31c-13.74,2.08-24,6.49-30.62,13.11l-.72.69c-.48.45-1,1-1.47,1.47H71c-.42.42-.8.87-1.18,1.3-9,10-11.59,19.37-11.59,19.37-.22,1.15-.45,2.34-.68,3.57a11.1,11.1,0,0,0-6.43,6.35c-1.87,4.52-.17,11.39,2,17.2l-1.28,7L44.43,164.4l-4,16v0l.12.1c21.89,18.87,50.95,34.38,82.1,34.38l.76,0,.76,0c31.21,0,59.74-14.7,81.64-33.61ZM65.92,106.89l-3.37,19.29s-7.67-14.27-5-21.2S67.72,99.6,67.72,99.6ZM91.59,121.2A14.22,14.22,0,0,1,84,113a13.89,13.89,0,0,1,18.73,8.22A14.29,14.29,0,0,1,91.59,121.2Zm31.8,26.3h0a41.57,41.57,0,0,0-14.26,2.23,23.22,23.22,0,0,1,12.8-5v-4.81h-1.07a7.52,7.52,0,0,1-5.47-2.67l-2.86-3.56a2.36,2.36,0,0,1,1.1-3.77,3.27,3.27,0,0,1,1-.16h17.53a3.22,3.22,0,0,1,1,.16,2.36,2.36,0,0,1,1.1,3.77l-2.86,3.56a7.5,7.5,0,0,1-5.51,2.67h-1v4.81a23.18,23.18,0,0,1,12.8,5A41.53,41.53,0,0,0,123.39,147.5Zm31.79-26.3a14.27,14.27,0,0,1-11.16,0A13.89,13.89,0,0,1,162.75,113,14.21,14.21,0,0,1,155.18,121.2Zm23.5-26.53a4.91,4.91,0,0,1-.4.35c-.07.06-.15.09-.22.14l-.24.19c-.24.15-.47.26-.69.37a.84.84,0,0,1-.19.07,5.22,5.22,0,0,1-4.37-.24l-.58-.34a27.34,27.34,0,0,0-15.11-4.53,27.84,27.84,0,0,0-11.73,2.64c-3.68,1.73-6.88,4.36-10.6,6.08a23,23,0,0,1-9.13,2.25s-.78,0-1.73,0h-.6c-1,0-1.74,0-1.74,0a23,23,0,0,1-9.12-2.25c-3.73-1.72-6.92-4.35-10.61-6.08A27.79,27.79,0,0,0,89.9,90.68a27.35,27.35,0,0,0-15.12,4.53l-.58.34a5.21,5.21,0,0,1-4.37.24,1.07,1.07,0,0,1-.19-.07c-.22-.11-.44-.22-.69-.37-.07-.06-.16-.12-.23-.19s-.15-.08-.23-.14a4.11,4.11,0,0,1-.39-.35L68,94.59a4.47,4.47,0,0,1-.42-.53,4.26,4.26,0,0,1-.43-.67,1.32,1.32,0,0,0-.13-.23c-.07-.19-.13-.37-.21-.56a1.43,1.43,0,0,1-.09-.37,2.4,2.4,0,0,1-.1-.48,6.52,6.52,0,0,1-.09-.71v-.11a4.56,4.56,0,0,1,0-.64s.16-.57.33-1.11a2.76,2.76,0,0,0,.14-.31,2.05,2.05,0,0,1,.2-.42,63.41,63.41,0,0,1,8.19-12.18l0,0a19.64,19.64,0,0,1,1.78-1.85c.29-.27.56-.53.81-.79,5.48-5.51,14.79-9.39,26.9-11.21a124.14,124.14,0,0,1,18.19-1.24h.53a124.28,124.28,0,0,1,18.2,1.24c12.11,1.82,21.42,5.7,26.9,11.21.25.26.52.52.8.79a18.67,18.67,0,0,1,1.79,1.85l0,0a63.43,63.43,0,0,1,8.2,12.18,2.76,2.76,0,0,1,.19.42c0,.1.08.2.14.31.17.54.33,1.11.33,1.11a4.55,4.55,0,0,1,0,.64V91a6.66,6.66,0,0,1-.08.71,3.39,3.39,0,0,1-.1.48,2,2,0,0,1-.1.37l-.21.56a.84.84,0,0,0-.12.23,4.31,4.31,0,0,1-.44.67,3.07,3.07,0,0,1-.42.53Zm5.54,31.51-3.36-19.29L179,99.6s7.51-1.54,10.18,5.38S184.22,126.18,184.22,126.18Z"/></svg>