<?xml version="1.0" encoding="utf-8"?>
<!-- Generator: Adobe Illustrator 25.0.0, SVG Export Plug-In . SVG Version: 6.00 Build 0)  -->
<svg fill="#000" version="1.1" id="图层_1" xmlns="http://www.w3.org/2000/svg" xmlns:xlink="http://www.w3.org/1999/xlink" x="0px" y="0px"
	 viewBox="0 0 250 200" style="enable-background:new 0 0 250 200;" xml:space="preserve">
<path d="M99.3,97.3c0-6.3,4.5-11.4,10.2-11.4c5.7,0,10.3,5.1,10.2,11.4c0,6.3-4.5,11.4-10.2,11.4C103.9,108.7,99.3,103.5,99.3,97.3z
	 M135.7,97.3c0-6.3,4.5-11.4,10.2-11.4c5.7,0,10.2,5.1,10.2,11.4c0,6.3-4.5,11.4-10.2,11.4C140.3,108.7,135.7,103.5,135.7,97.3z"/>
<path d="M57.4,0.2h135c11.4,0,20.6,9.2,20.6,20.6V200l-21.7-19l-12.2-11.2l-12.9-11.9l5.3,18.5H57.4c-11.4,0-20.6-9.2-20.6-20.6
	v-135C36.7,9.4,46,0.2,57.4,0.2z M146.8,122.6c3,3.8,6.7,8.1,6.7,8.1c22.3-0.7,30.8-15.2,30.8-15.2c0-32.2-14.5-58.2-14.5-58.2
	c-14.5-10.8-28.3-10.5-28.3-10.5l-1.4,1.6c17.1,5.2,25.1,12.7,25.1,12.7c-9.4-5.1-19.7-8.4-30.3-9.6c-6.8-0.7-13.6-0.7-20.4,0.2
	c-0.5,0-1,0.1-1.5,0.2l-0.2,0c-3.5,0.3-12.1,1.6-22.9,6.3c-3.7,1.7-5.9,2.9-5.9,2.9s8.4-7.9,26.5-13.1l-1-1.2
	c0,0-13.8-0.3-28.3,10.5c0,0-14.5,26.1-14.5,58.2c0,0,8.5,14.5,30.7,15.2c0,0,3.7-4.5,6.8-8.3c-12.8-3.8-17.6-11.8-17.6-11.8
	s1,0.7,2.8,1.7c0.1,0.1,0.2,0.2,0.4,0.3c0.1,0.1,0.3,0.2,0.5,0.2c2.5,1.4,5.1,2.6,7.8,3.6c4.1,1.6,9.1,3.2,14.8,4.3
	c8.6,1.6,17.5,1.7,26.1,0.1c5-0.9,9.9-2.3,14.6-4.3c4.1-1.5,8-3.5,11.6-5.9C165,110.7,160,118.9,146.8,122.6L146.8,122.6z"/>
</svg>
