<?xml version="1.0" standalone="no"?><!DOCTYPE svg PUBLIC "-//W3C//DTD SVG 1.1//EN" "http://www.w3.org/Graphics/SVG/1.1/DTD/svg11.dtd"><svg fill="#939393" t="1631502961622" class="icon" viewBox="0 0 1280 1024" version="1.1" xmlns="http://www.w3.org/2000/svg" p-id="9879" xmlns:xlink="http://www.w3.org/1999/xlink" width="250" height="200"><defs><style type="text/css"></style></defs><path d="M1128.512 255.808c0.832 11.2 0.832 22.336 0.832 33.472 0 340.8-259.392 733.504-733.44 733.504-146.048 0-281.728-42.304-395.904-115.776 20.736 2.368 40.704 3.2 62.272 3.2a516.48 516.48 0 0 0 320.064-110.144 258.304 258.304 0 0 1-241.088-178.752c15.936 2.368 31.936 3.968 48.704 3.968 23.104 0 46.336-3.2 67.904-8.768A257.728 257.728 0 0 1 51.136 363.52v-3.2c34.368 19.136 74.24 31.104 116.48 32.704A257.408 257.408 0 0 1 52.672 178.368c0-47.872 12.736-91.776 35.072-130.048A733.248 733.248 0 0 0 619.328 318.08c-3.968-19.2-6.4-39.104-6.4-59.072A257.664 257.664 0 0 1 870.72 1.216c74.24 0 141.248 31.104 188.352 81.408a509.248 509.248 0 0 0 163.584-62.272c-19.2 59.52-59.52 110.08-113.344 142.08a516.672 516.672 0 0 0 148.416-39.936 553.344 553.344 0 0 1-129.216 133.312z" p-id="9880"></path></svg>